<svg width="14" height="14" viewBox="0 0 14 14" fill="none" xmlns="http://www.w3.org/2000/svg">
<path fill-rule="evenodd" clip-rule="evenodd" d="M9.88332 8.93266L13.47 12.5193C13.5961 12.6455 13.6668 12.8165 13.6668 12.9949C13.6667 13.1732 13.5958 13.3443 13.4697 13.4703C13.3435 13.5964 13.1724 13.6672 12.9941 13.6671C12.8157 13.6671 12.6447 13.5961 12.5187 13.47L8.93199 9.88333C7.8598 10.7138 6.51151 11.1046 5.16141 10.9762C3.8113 10.8479 2.56081 10.21 1.66431 9.1924C0.767809 8.17479 0.292648 6.85387 0.335489 5.49836C0.37833 4.14285 0.935955 2.85457 1.89492 1.8956C2.85389 0.936626 4.14217 0.379001 5.49768 0.33616C6.8532 0.293319 8.17412 0.76848 9.19173 1.66498C10.2093 2.56148 10.8472 3.81198 10.9756 5.16208C11.1039 6.51218 10.7138 7.86047 9.88332 8.93266ZM5.66665 9.66666C6.72752 9.66666 7.74494 9.24523 8.49508 8.49509C9.24523 7.74494 9.66665 6.72752 9.66665 5.66666C9.66665 4.60579 9.24523 3.58838 8.49508 2.83823C7.74494 2.08809 6.72752 1.66666 5.66665 1.66666C4.60579 1.66666 3.58837 2.08809 2.83823 2.83823C2.08808 3.58838 1.66665 4.60579 1.66665 5.66666C1.66665 6.72752 2.08808 7.74494 2.83823 8.49509C3.58837 9.24523 4.60579 9.66666 5.66665 9.66666Z" fill="#707276"/>
</svg>
