<svg width="13" height="13" viewBox="0 0 13 13" fill="none" xmlns="http://www.w3.org/2000/svg">
<path d="M2.84375 3.25H4.875V4.0625H2.84375V3.25ZM2.84375 4.875H4.875V5.6875H2.84375V4.875ZM2.84375 6.5H4.875V7.3125H2.84375V6.5ZM8.125 3.25H10.1562V4.0625H8.125V3.25ZM8.125 4.875H10.1562V5.6875H8.125V4.875ZM8.125 6.5H10.1562V7.3125H8.125V6.5Z" fill="#707276"/>
<path d="M11.375 1.625H1.625C1.40958 1.62522 1.20304 1.71089 1.05071 1.86321C0.898387 2.01554 0.812715 2.22208 0.8125 2.4375V11.375C0.812715 11.5904 0.898387 11.797 1.05071 11.9493C1.20304 12.1016 1.40958 12.1873 1.625 12.1875H11.375C11.5904 12.1873 11.797 12.1016 11.9493 11.9493C12.1016 11.797 12.1873 11.5904 12.1875 11.375V2.4375C12.1873 2.22208 12.1016 2.01554 11.9493 1.86321C11.797 1.71089 11.5904 1.62522 11.375 1.625V1.625ZM1.625 2.4375H6.09375V11.375H1.625V2.4375ZM6.90625 11.375V2.4375H11.375V11.375H6.90625Z" fill="#707276"/>
</svg>
