<svg width="13" height="13" viewBox="0 0 13 13" fill="none" xmlns="http://www.w3.org/2000/svg">
<path d="M6.5 2.03125C6.28451 2.03125 6.07785 2.11685 5.92548 2.26923C5.7731 2.4216 5.6875 2.62826 5.6875 2.84375C5.6875 3.05924 5.7731 3.2659 5.92548 3.41827C6.07785 3.57065 6.28451 3.65625 6.5 3.65625C6.71549 3.65625 6.92215 3.57065 7.07452 3.41827C7.2269 3.2659 7.3125 3.05924 7.3125 2.84375C7.3125 2.62826 7.2269 2.4216 7.07452 2.26923C6.92215 2.11685 6.71549 2.03125 6.5 2.03125ZM4.875 2.84375C4.875 2.41277 5.0462 1.99945 5.35095 1.6947C5.6557 1.38995 6.06902 1.21875 6.5 1.21875C6.93098 1.21875 7.3443 1.38995 7.64905 1.6947C7.95379 1.99945 8.125 2.41277 8.125 2.84375C8.125 3.27473 7.95379 3.68805 7.64905 3.9928C7.3443 4.29755 6.93098 4.46875 6.5 4.46875C6.06902 4.46875 5.6557 4.29755 5.35095 3.9928C5.0462 3.68805 4.875 3.27473 4.875 2.84375ZM10.3594 2.4375C10.1978 2.4375 10.0428 2.5017 9.92848 2.61598C9.8142 2.73026 9.75 2.88526 9.75 3.04688C9.75 3.20849 9.8142 3.36349 9.92848 3.47777C10.0428 3.59205 10.1978 3.65625 10.3594 3.65625C10.521 3.65625 10.676 3.59205 10.7903 3.47777C10.9045 3.36349 10.9688 3.20849 10.9688 3.04688C10.9688 2.88526 10.9045 2.73026 10.7903 2.61598C10.676 2.5017 10.521 2.4375 10.3594 2.4375ZM8.9375 3.04688C8.9375 2.86015 8.97428 2.67526 9.04573 2.50275C9.11719 2.33024 9.22192 2.17349 9.35396 2.04146C9.48599 1.90942 9.64274 1.80469 9.81525 1.73323C9.98776 1.66178 10.1727 1.625 10.3594 1.625C10.5461 1.625 10.731 1.66178 10.9035 1.73323C11.076 1.80469 11.2328 1.90942 11.3648 2.04146C11.4968 2.17349 11.6016 2.33024 11.673 2.50275C11.7445 2.67526 11.7812 2.86015 11.7812 3.04688C11.7812 3.42398 11.6314 3.78564 11.3648 4.05229C11.0981 4.31895 10.7365 4.46875 10.3594 4.46875C9.98227 4.46875 9.62061 4.31895 9.35396 4.05229C9.0873 3.78564 8.9375 3.42398 8.9375 3.04688ZM2.03125 3.04688C2.03125 2.88526 2.09545 2.73026 2.20973 2.61598C2.32401 2.5017 2.47901 2.4375 2.64062 2.4375C2.80224 2.4375 2.95724 2.5017 3.07152 2.61598C3.1858 2.73026 3.25 2.88526 3.25 3.04688C3.25 3.20849 3.1858 3.36349 3.07152 3.47777C2.95724 3.59205 2.80224 3.65625 2.64062 3.65625C2.47901 3.65625 2.32401 3.59205 2.20973 3.47777C2.09545 3.36349 2.03125 3.20849 2.03125 3.04688ZM2.64062 1.625C2.26352 1.625 1.90186 1.7748 1.63521 2.04146C1.36855 2.30811 1.21875 2.66977 1.21875 3.04688C1.21875 3.42398 1.36855 3.78564 1.63521 4.05229C1.90186 4.31895 2.26352 4.46875 2.64062 4.46875C3.01773 4.46875 3.37939 4.31895 3.64604 4.05229C3.9127 3.78564 4.0625 3.42398 4.0625 3.04688C4.0625 2.66977 3.9127 2.30811 3.64604 2.04146C3.37939 1.7748 3.01773 1.625 2.64062 1.625ZM3.51447 9.95516C3.33073 10.0763 3.11764 10.1454 2.8978 10.1551C2.67796 10.1649 2.45957 10.1149 2.26583 10.0106C2.07209 9.90623 1.91021 9.75138 1.79738 9.56244C1.68456 9.37351 1.62499 9.15756 1.625 8.9375V6.29688C1.625 6.243 1.6464 6.19134 1.68449 6.15324C1.72259 6.11515 1.77425 6.09375 1.82813 6.09375H3.46572C3.50277 5.7963 3.62176 5.515 3.80941 5.28125H1.82813C1.55876 5.28125 1.30044 5.38825 1.10997 5.57872C0.919503 5.76919 0.8125 6.02751 0.8125 6.29688V8.9375C0.812395 9.28731 0.902631 9.63122 1.07447 9.93591C1.2463 10.2406 1.49391 10.4958 1.79331 10.6767C2.09271 10.8576 2.43376 10.9581 2.78341 10.9685C3.13307 10.9789 3.47948 10.8988 3.78909 10.736C3.66221 10.4895 3.5698 10.2268 3.51447 9.95516ZM9.21091 10.736C9.52052 10.8988 9.86693 10.9789 10.2166 10.9685C10.5662 10.9581 10.9073 10.8576 11.2067 10.6767C11.5061 10.4958 11.7537 10.2406 11.9255 9.93591C12.0974 9.63122 12.1876 9.28731 12.1875 8.9375V6.29688C12.1875 6.02751 12.0805 5.76919 11.89 5.57872C11.6996 5.38825 11.4412 5.28125 11.1719 5.28125H9.19059C9.37807 5.5151 9.49704 5.79635 9.53428 6.09375H11.1719C11.2257 6.09375 11.2774 6.11515 11.3155 6.15324C11.3536 6.19134 11.375 6.243 11.375 6.29688V8.9375C11.375 9.15756 11.3154 9.37351 11.2026 9.56244C11.0898 9.75138 10.9279 9.90623 10.7342 10.0106C10.5404 10.1149 10.322 10.1649 10.1022 10.1551C9.88236 10.1454 9.66927 10.0763 9.48553 9.95516C9.43019 10.2268 9.33779 10.4895 9.21091 10.736ZM5.07812 5.28125C4.80876 5.28125 4.55044 5.38825 4.35997 5.57872C4.1695 5.76919 4.0625 6.02751 4.0625 6.29688V9.34375C4.0625 9.99022 4.31931 10.6102 4.77643 11.0673C5.23355 11.5244 5.85353 11.7812 6.5 11.7812C7.14647 11.7812 7.76645 11.5244 8.22357 11.0673C8.68069 10.6102 8.9375 9.99022 8.9375 9.34375V6.29688C8.9375 6.02751 8.8305 5.76919 8.64003 5.57872C8.44956 5.38825 8.19124 5.28125 7.92188 5.28125H5.07812ZM4.875 6.29688C4.875 6.243 4.8964 6.19134 4.93449 6.15324C4.97259 6.11515 5.02425 6.09375 5.07812 6.09375H7.92188C7.97575 6.09375 8.02741 6.11515 8.06551 6.15324C8.1036 6.19134 8.125 6.243 8.125 6.29688V9.34375C8.125 9.77473 7.95379 10.1881 7.64905 10.4928C7.3443 10.7975 6.93098 10.9688 6.5 10.9688C6.06902 10.9688 5.6557 10.7975 5.35095 10.4928C5.0462 10.1881 4.875 9.77473 4.875 9.34375V6.29688Z" fill="#707276"/>
</svg>
