<svg width="15" height="15" viewBox="0 0 15 15" fill="none" xmlns="http://www.w3.org/2000/svg">
<path fill-rule="evenodd" clip-rule="evenodd" d="M2.8 1H2.75C2.521 1 2.324 1 2.15 1.041C1.88064 1.10536 1.63435 1.24305 1.43843 1.43879C1.24251 1.63453 1.10461 1.88069 1.04 2.15C1 2.324 1 2.52 1 2.75V5.25C1 5.479 1 5.676 1.041 5.85C1.10536 6.11936 1.24305 6.36565 1.43879 6.56157C1.63453 6.75749 1.88069 6.89539 2.15 6.96C2.324 7 2.52 7 2.75 7H5.25C5.479 7 5.676 7 5.85 6.959C6.11936 6.89464 6.36565 6.75695 6.56157 6.56121C6.75749 6.36547 6.89539 6.11931 6.96 5.85C7 5.676 7 5.48 7 5.25V2.75C7 2.521 7 2.324 6.959 2.15C6.89464 1.88064 6.75695 1.63435 6.56121 1.43843C6.36547 1.24251 6.11931 1.10461 5.85 1.04C5.676 1 5.48 1 5.25 1H2.8ZM2.383 2.014C2.426 2.004 2.493 2 2.8 2H5.2C5.508 2 5.574 2.003 5.617 2.014C5.70683 2.03548 5.78895 2.08143 5.85426 2.14674C5.91957 2.21205 5.96552 2.29417 5.987 2.384C5.997 2.426 6 2.492 6 2.8V5.2C6 5.508 5.997 5.574 5.986 5.617C5.96452 5.70683 5.91857 5.78895 5.85326 5.85426C5.78795 5.91957 5.70583 5.96552 5.616 5.987C5.575 5.996 5.509 6 5.2 6H2.8C2.492 6 2.426 5.997 2.383 5.986C2.29317 5.96452 2.21105 5.91857 2.14574 5.85326C2.08043 5.78795 2.03448 5.70583 2.013 5.616C2.004 5.575 2 5.509 2 5.2V2.8C2 2.492 2.003 2.426 2.014 2.383C2.03548 2.29317 2.08143 2.21105 2.14674 2.14574C2.21205 2.08043 2.29417 2.03448 2.384 2.013L2.383 2.014ZM9.8 1H9.75C9.521 1 9.324 1 9.15 1.041C8.88064 1.10536 8.63435 1.24305 8.43843 1.43879C8.24251 1.63453 8.10461 1.88069 8.04 2.15C8 2.324 8 2.52 8 2.75V5.25C8 5.479 8 5.676 8.041 5.85C8.10537 6.11936 8.24305 6.36565 8.43879 6.56157C8.63453 6.75749 8.88069 6.89539 9.15 6.96C9.324 7 9.52 7 9.75 7H12.25C12.479 7 12.676 7 12.85 6.959C13.1194 6.89464 13.3657 6.75695 13.5616 6.56121C13.7575 6.36547 13.8954 6.11931 13.96 5.85C14 5.676 14 5.48 14 5.25V2.75C14 2.521 14 2.324 13.959 2.15C13.8946 1.88064 13.757 1.63435 13.5612 1.43843C13.3655 1.24251 13.1193 1.10461 12.85 1.04C12.676 1 12.48 1 12.25 1H9.8ZM9.383 2.014C9.426 2.004 9.493 2 9.8 2H12.2C12.508 2 12.574 2.003 12.617 2.014C12.7068 2.03548 12.789 2.08143 12.8543 2.14674C12.9196 2.21205 12.9655 2.29417 12.987 2.384C12.997 2.426 13 2.492 13 2.8V5.2C13 5.508 12.996 5.574 12.986 5.617C12.9645 5.70683 12.9186 5.78895 12.8533 5.85426C12.788 5.91957 12.7058 5.96552 12.616 5.987C12.574 5.997 12.508 6 12.2 6H9.8C9.492 6 9.426 5.997 9.383 5.986C9.29317 5.96452 9.21105 5.91857 9.14574 5.85326C9.08043 5.78795 9.03448 5.70583 9.013 5.616C9.004 5.575 9 5.509 9 5.2V2.8C9 2.492 9.003 2.426 9.014 2.383C9.03548 2.29317 9.08142 2.21105 9.14674 2.14574C9.21205 2.08043 9.29417 2.03448 9.384 2.013L9.383 2.014ZM2.75 8H5.25C5.479 8 5.676 8 5.85 8.041C6.11936 8.10537 6.36565 8.24305 6.56157 8.43879C6.75749 8.63453 6.89539 8.88069 6.96 9.15C7 9.324 7 9.52 7 9.75V12.25C7 12.479 7 12.676 6.959 12.85C6.89464 13.1194 6.75695 13.3657 6.56121 13.5616C6.36547 13.7575 6.11931 13.8954 5.85 13.96C5.676 14 5.48 14 5.25 14H2.75C2.521 14 2.324 14 2.15 13.959C1.88064 13.8946 1.63435 13.757 1.43843 13.5612C1.24251 13.3655 1.10461 13.1193 1.04 12.85C1 12.676 1 12.48 1 12.25V9.75C1 9.521 1 9.324 1.041 9.15C1.10536 8.88064 1.24305 8.63435 1.43879 8.43843C1.63453 8.24251 1.88069 8.10461 2.15 8.04C2.324 8 2.52 8 2.75 8ZM2.8 9C2.492 9 2.426 9.003 2.383 9.014C2.29317 9.03548 2.21105 9.08142 2.14574 9.14674C2.08043 9.21205 2.03448 9.29417 2.013 9.384C2.004 9.425 2 9.491 2 9.8V12.2C2 12.508 2.003 12.574 2.014 12.617C2.03548 12.7068 2.08143 12.789 2.14674 12.8543C2.21205 12.9196 2.29417 12.9655 2.384 12.987C2.426 12.997 2.492 13 2.8 13H5.2C5.508 13 5.574 12.996 5.617 12.986C5.70683 12.9645 5.78895 12.9186 5.85426 12.8533C5.91957 12.788 5.96552 12.7058 5.987 12.616C5.997 12.574 6 12.508 6 12.2V9.8C6 9.492 5.997 9.426 5.986 9.383C5.96452 9.29317 5.91857 9.21105 5.85326 9.14574C5.78795 9.08043 5.70583 9.03448 5.616 9.013C5.575 9.004 5.509 9 5.2 9H2.8ZM9.8 8H9.75C9.521 8 9.324 8 9.15 8.041C8.88064 8.10537 8.63435 8.24305 8.43843 8.43879C8.24251 8.63453 8.10461 8.88069 8.04 9.15C8 9.324 8 9.52 8 9.75V12.25C8 12.479 8 12.676 8.041 12.85C8.10537 13.1194 8.24305 13.3657 8.43879 13.5616C8.63453 13.7575 8.88069 13.8954 9.15 13.96C9.324 14.001 9.521 14.001 9.75 14.001H12.25C12.479 14.001 12.676 14.001 12.85 13.96C13.1192 13.8955 13.3653 13.7577 13.561 13.562C13.7567 13.3663 13.8945 13.1202 13.959 12.851C14 12.677 14 12.48 14 12.251V9.75C14 9.521 14 9.324 13.959 9.15C13.8946 8.88064 13.757 8.63435 13.5612 8.43843C13.3655 8.24251 13.1193 8.10461 12.85 8.04C12.676 8 12.48 8 12.25 8H9.8ZM9.383 9.014C9.426 9.004 9.493 9 9.8 9H12.2C12.508 9 12.574 9.003 12.617 9.014C12.7068 9.03548 12.789 9.08142 12.8543 9.14674C12.9196 9.21205 12.9655 9.29417 12.987 9.384C12.997 9.426 13 9.492 13 9.8V12.2C13 12.508 12.996 12.574 12.986 12.617C12.9645 12.7068 12.9186 12.789 12.8533 12.8543C12.788 12.9196 12.7058 12.9655 12.616 12.987C12.574 12.997 12.508 13 12.2 13H9.8C9.492 13 9.426 12.996 9.383 12.986C9.29317 12.9645 9.21105 12.9186 9.14574 12.8533C9.08043 12.788 9.03448 12.7058 9.013 12.616C9.004 12.575 9 12.509 9 12.2V9.8C9 9.492 9.003 9.426 9.014 9.383C9.03548 9.29317 9.08142 9.21105 9.14674 9.14574C9.21205 9.08043 9.29417 9.03448 9.384 9.013L9.383 9.014Z" fill="#707276"/>
</svg>
