<svg width="15" height="15" viewBox="0 0 15 15" fill="none" xmlns="http://www.w3.org/2000/svg">
<path d="M1.875 3.125H4.375M13.125 3.125H6.875M1.875 7.5H9.375M13.125 7.5H11.875M1.875 11.875H3.125M13.125 11.875H5.625" stroke="#5F5E61" stroke-linecap="round"/>
<path d="M5.625 4.375C6.31536 4.375 6.875 3.81536 6.875 3.125C6.875 2.43464 6.31536 1.875 5.625 1.875C4.93464 1.875 4.375 2.43464 4.375 3.125C4.375 3.81536 4.93464 4.375 5.625 4.375Z" stroke="#5F5E61" stroke-linecap="round"/>
<path d="M10.625 8.75C11.3154 8.75 11.875 8.19036 11.875 7.5C11.875 6.80964 11.3154 6.25 10.625 6.25C9.93464 6.25 9.375 6.80964 9.375 7.5C9.375 8.19036 9.93464 8.75 10.625 8.75Z" stroke="#5F5E61" stroke-linecap="round"/>
<path d="M4.375 13.125C5.06536 13.125 5.625 12.5654 5.625 11.875C5.625 11.1846 5.06536 10.625 4.375 10.625C3.68464 10.625 3.125 11.1846 3.125 11.875C3.125 12.5654 3.68464 13.125 4.375 13.125Z" stroke="#5F5E61" stroke-linecap="round"/>
</svg>
